# xmcd
#
# Track frame offsets:
#	150
#	9960
#	21970
#	31635
#	47035
#	61425
#	73292
#	83825
#	95095
#	107887
#	123505
#	132950
#	142237
#	158745
#	171075
#	183220
#	198790
#	211070
#	223547
#	234450
#	248295
#
# Disc length: 3466
#
# Revision: 2
# Processed by: cddbd v1.5.1PL2 Copyright (c) Steve Scherf et al.
# Submitted via: CDex 1.30Release
# Normalized: r1:DSETVAR1
#
DISCID=1e0d8815
DTITLE=Various Artist - Roll, Truck Roll
DYEAR=1987
DGENRE=Country
TTITLE0=Dennis Olson - Truck Drivin´ Outlaw
TTITLE1=Del Reeves - Girl On The Billboard
TTITLE2=Dave Dudley - Truck Drivin Son Of A Gun
TTITLE3=Steve Brown - C.B. Savage
TTITLE4=Earl Ricks - Highway 40 Blues
TTITLE5=Earl Ricks - Truck Driver´s Prayer
TTITLE6=David Blue Boy - Tennessee Is Home To Me
TTITLE7=Earl Ricks - That´s Truckdriving
TTITLE8=Red Simpson - Roll Truck Roll
TTITLE9=George Bennet - Mystery Maiden
TTITLE10=David Blue Boy - Truckers Way Of Life
TTITLE11=Groover Spooks - Hold Everything
TTITLE12=John McRoad And The Texas Liner - Roll On
TTITLE13=George Bennet - It´s Hard To Love A Man
TTITLE14=Mel McBrown - Freightliner Fever
TTITLE15=Red Simpson - I´m A Truck
TTITLE16=La Costa Tucker - He Took Me For A Ride
TTITLE17=Don King - I Didn´t Jump The Fence
TTITLE18=John McRoad And The Texas Liner - On The Road Again
TTITLE19=John McRoad And The Texas Liner - Day Time Friends
TTITLE20=John McRoad And The Texas Liner - Ode To 10-33
EXTD=YEAR: 1987 ID3G:   2
EXTT0=
EXTT1=
EXTT2=
EXTT3=
EXTT4=
EXTT5=
EXTT6=
EXTT7=
EXTT8=
EXTT9=
EXTT10=
EXTT11=
EXTT12=
EXTT13=
EXTT14=
EXTT15=
EXTT16=
EXTT17=
EXTT18=
EXTT19=
EXTT20=
PLAYORDER=
